<svg aria-hidden="true" style="position: absolute; width: 0; height: 0; overflow: hidden;" version="1.1" xmlns="http://www.w3.org/2000/svg" xmlns:xlink="http://www.w3.org/1999/xlink">
<defs>

<symbol id="icon-call" viewBox="0 0 32 32">
<path d="M31.16 24.687l-6.477-4.319c-0.822-0.544-1.924-0.365-2.531 0.411l-1.887 2.426c-0.242 0.32-0.683 0.412-1.034 0.218l-0.359-0.198c-1.19-0.648-2.67-1.456-5.652-4.439s-3.791-4.465-4.44-5.652l-0.197-0.359c-0.198-0.351-0.107-0.793 0.213-1.038l2.424-1.886c0.776-0.608 0.955-1.709 0.412-2.531l-4.319-6.477c-0.557-0.837-1.673-1.089-2.535-0.571l-2.708 1.627c-0.851 0.5-1.475 1.311-1.742 2.261-0.975 3.554-0.242 9.687 8.793 18.722 7.187 7.186 12.537 9.118 16.214 9.118 0.846 0.004 1.689-0.106 2.506-0.327 0.951-0.266 1.761-0.891 2.261-1.742l1.629-2.707c0.519-0.862 0.268-1.979-0.57-2.536zM30.812 26.676l-1.625 2.708c-0.359 0.614-0.942 1.066-1.626 1.261-3.281 0.901-9.012 0.155-17.685-8.519s-9.419-14.404-8.519-17.685c0.195-0.685 0.647-1.269 1.262-1.629l2.708-1.625c0.374-0.225 0.859-0.116 1.1 0.247l4.316 6.476c0.236 0.357 0.158 0.835-0.178 1.099l-2.425 1.886c-0.738 0.564-0.949 1.585-0.494 2.395l0.193 0.35c0.682 1.25 1.529 2.805 4.622 5.898s4.648 3.94 5.897 4.622l0.35 0.193c0.81 0.454 1.831 0.243 2.395-0.494l1.886-2.425c0.264-0.336 0.742-0.414 1.099-0.178l6.476 4.319c0.364 0.241 0.473 0.726 0.247 1.1z"></path>
<path d="M18.133 5.336c5.004 0.006 9.060 4.061 9.065 9.065 0 0.295 0.239 0.533 0.533 0.533s0.533-0.239 0.533-0.533c-0.006-5.593-4.539-10.126-10.132-10.132-0.294 0-0.533 0.239-0.533 0.533s0.239 0.533 0.533 0.533z"></path>
<path d="M18.133 8.536c3.238 0.004 5.862 2.628 5.866 5.866 0 0.294 0.239 0.533 0.533 0.533s0.533-0.239 0.533-0.533c-0.004-3.827-3.106-6.928-6.932-6.932-0.294 0-0.533 0.239-0.533 0.533s0.239 0.533 0.533 0.533z"></path>
<path d="M18.133 11.736c1.472 0.002 2.665 1.194 2.666 2.666 0 0.295 0.239 0.533 0.533 0.533s0.533-0.239 0.533-0.533c-0.002-2.061-1.672-3.73-3.733-3.733-0.294 0-0.533 0.239-0.533 0.533s0.239 0.533 0.533 0.533z"></path>
</symbol>

<symbol id="icon-envelope" viewBox="0 0 32 32">
<path d="M28.093 3.823h-24.18c-2.158 0-3.913 1.755-3.913 3.913v16.526c0 2.159 1.755 3.913 3.913 3.913h24.174c2.159 0 3.913-1.755 3.913-3.913v-16.52c0.007-2.159-1.748-3.92-3.907-3.92zM30.219 24.263c0 1.172-0.953 2.125-2.125 2.125h-24.18c-1.172 0-2.125-0.953-2.125-2.125v-16.52c0-1.172 0.953-2.125 2.125-2.125h24.174c1.172 0 2.125 0.953 2.125 2.125v16.52h0.007z"></path>
<path d="M20.181 15.795l7.826-7.018c0.364-0.331 0.397-0.894 0.066-1.265-0.331-0.364-0.894-0.397-1.265-0.066l-10.792 9.687-2.105-1.88c-0.007-0.007-0.013-0.013-0.013-0.020-0.046-0.046-0.093-0.086-0.146-0.126l-8.568-7.667c-0.371-0.331-0.934-0.298-1.265 0.073s-0.298 0.934 0.073 1.265l7.919 7.078-7.886 7.383c-0.358 0.338-0.377 0.9-0.040 1.265 0.179 0.185 0.417 0.285 0.656 0.285 0.218 0 0.437-0.080 0.609-0.238l8.005-7.488 2.172 1.94c0.172 0.152 0.384 0.225 0.596 0.225s0.43-0.079 0.596-0.232l2.231-2 7.959 7.561c0.172 0.165 0.397 0.245 0.616 0.245 0.238 0 0.47-0.093 0.649-0.278 0.338-0.358 0.324-0.927-0.033-1.265l-7.859-7.462z"></path>
</symbol>

<symbol id="icon-placeholder" viewBox="0 0 32 32">
<path d="M15.978 0c-6.467 0-11.728 5.261-11.728 11.728 0 2.971 1.872 7.168 5.564 12.475 2.698 3.88 5.353 6.882 5.464 7.008l0.7 0.789 0.7-0.789c0.112-0.126 2.766-3.128 5.464-7.008 3.692-5.307 5.564-9.505 5.564-12.475 0-6.467-5.261-11.728-11.728-11.728zM20.616 23.12c-1.824 2.624-3.667 4.882-4.639 6.035-0.969-1.149-2.805-3.399-4.628-6.019-3.421-4.917-5.229-8.862-5.229-11.407 0-5.435 4.422-9.857 9.857-9.857s9.857 4.422 9.857 9.857c0 2.542-1.804 6.481-5.218 11.392z"></path>
<path d="M15.976 4.334c-3.817 0-6.922 3.105-6.922 6.922s3.105 6.922 6.922 6.922c3.817 0 6.922-3.105 6.922-6.922s-3.105-6.922-6.922-6.922zM15.976 16.307c-2.785 0-5.051-2.266-5.051-5.051s2.266-5.051 5.051-5.051c2.785 0 5.051 2.266 5.051 5.051s-2.266 5.051-5.051 5.051z"></path>
</symbol>

<symbol id="icon-web-programming" viewBox="0 0 32 32">
<path fill="#4985ff" style="fill: var(--color2, #4985ff)" d="M12.626 22.425c-0.121 0-0.243-0.042-0.342-0.126l-3.419-2.911c-0.118-0.1-0.186-0.247-0.186-0.402s0.068-0.302 0.186-0.402l3.419-2.911c0.222-0.189 0.555-0.162 0.745 0.060s0.162 0.556-0.060 0.745l-2.946 2.509 2.946 2.509c0.222 0.189 0.249 0.523 0.060 0.745-0.105 0.123-0.253 0.186-0.403 0.186z"></path>
<path fill="#4985ff" style="fill: var(--color2, #4985ff)" d="M19.374 22.425c-0.149 0-0.298-0.063-0.402-0.186-0.189-0.222-0.162-0.555 0.060-0.745l2.946-2.509-2.946-2.509c-0.222-0.189-0.249-0.522-0.060-0.745s0.523-0.249 0.744-0.060l3.419 2.911c0.118 0.1 0.186 0.247 0.186 0.402s-0.068 0.302-0.186 0.402l-3.419 2.911c-0.099 0.085-0.221 0.126-0.342 0.126z"></path>
<path fill="#4985ff" style="fill: var(--color2, #4985ff)" d="M14.79 24.609c-0.036 0-0.073-0.004-0.11-0.012-0.285-0.060-0.468-0.34-0.408-0.626l2.131-10.116c0.060-0.285 0.34-0.468 0.626-0.408s0.468 0.34 0.408 0.626l-2.131 10.116c-0.052 0.249-0.272 0.42-0.516 0.42z"></path>
<path fill="#4985ff" style="fill: var(--color2, #4985ff)" d="M28.453 30.12h-24.906c-1.956 0-3.547-1.591-3.547-3.547v-21.139c0-1.956 1.591-3.547 3.547-3.547h24.906c1.956 0 3.547 1.591 3.547 3.547v21.139c0 1.956-1.591 3.547-3.547 3.547zM3.547 2.944c-1.373 0-2.491 1.117-2.491 2.491v21.139c0 1.373 1.117 2.491 2.491 2.491h24.906c1.373 0 2.491-1.117 2.491-2.491v-21.139c0-1.373-1.117-2.491-2.491-2.491h-24.906z"></path>
<path fill="#4985ff" style="fill: var(--color2, #4985ff)" d="M31.472 10.346h-30.943c-0.292 0-0.528-0.236-0.528-0.528s0.236-0.528 0.528-0.528h30.943c0.292 0 0.528 0.237 0.528 0.528s-0.236 0.528-0.528 0.528z"></path>
<path fill="#4985ff" style="fill: var(--color2, #4985ff)" d="M9.026 7.818c-0.922 0-1.672-0.75-1.672-1.672s0.75-1.672 1.672-1.672c0.922 0 1.672 0.75 1.672 1.672s-0.75 1.672-1.672 1.672zM9.026 5.531c-0.339 0-0.615 0.276-0.615 0.615s0.276 0.615 0.615 0.615c0.339 0 0.615-0.276 0.615-0.615s-0.276-0.615-0.615-0.615z"></path>
<path fill="#4985ff" style="fill: var(--color2, #4985ff)" d="M3.891 7.802c-0.922 0-1.672-0.75-1.672-1.672s0.75-1.672 1.672-1.672c0.922 0 1.672 0.75 1.672 1.672s-0.75 1.672-1.672 1.672zM3.891 5.515c-0.339 0-0.615 0.276-0.615 0.615s0.276 0.615 0.615 0.615c0.339 0 0.615-0.276 0.615-0.615s-0.276-0.615-0.615-0.615z"></path>
<path fill="#4985ff" style="fill: var(--color2, #4985ff)" d="M14.163 7.834c-0.921 0-1.672-0.75-1.672-1.672s0.75-1.672 1.672-1.672c0.922 0 1.672 0.75 1.672 1.672s-0.75 1.672-1.672 1.672zM14.163 5.547c-0.339 0-0.615 0.276-0.615 0.615s0.276 0.615 0.615 0.615c0.339 0 0.615-0.276 0.615-0.615s-0.276-0.615-0.615-0.615z"></path>
</symbol>

<symbol id="icon-Group" viewBox="0 0 32 32">
<path fill="#4985ff" style="fill: var(--color2, #4985ff)" d="M31.466 0h-24c-0.295 0-0.533 0.239-0.533 0.533v8h1.067v-7.467h22.933v29.333c0.005 0.28-0.211 0.515-0.491 0.533-0.046 0-0.092-0.004-0.138-0.005-0.094-0.003-0.189-0.005-0.282-0.014-0.008 0-0.015 0-0.023-0.003-1.742-0.19-3.118-1.565-3.31-3.307 0-0.008-0.003-0.016-0.004-0.023-0.013-0.127-0.019-0.254-0.019-0.381v-1.067c0-0.295-0.239-0.533-0.533-0.533h-18.133v-9.6h-1.067v9.6h-4.267c-0.295 0-0.533 0.239-0.533 0.533v1.067c0.003 2.65 2.15 4.797 4.8 4.8h23.52c0.866-0.023 1.553-0.734 1.547-1.6v-29.867c0-0.295-0.239-0.533-0.533-0.533zM6.933 30.933c-2.061-0.002-3.731-1.672-3.733-3.733v-0.533h22.4v0.533c0.001 0.176 0.011 0.352 0.030 0.526 0.005 0.046 0.014 0.091 0.020 0.137 0.018 0.129 0.039 0.258 0.067 0.384 0.010 0.044 0.022 0.088 0.033 0.132 0.032 0.129 0.069 0.255 0.112 0.38 0.012 0.036 0.025 0.071 0.038 0.107 0.048 0.132 0.103 0.261 0.164 0.389 0.013 0.026 0.025 0.053 0.037 0.077 0.067 0.135 0.14 0.266 0.22 0.394 0.011 0.017 0.020 0.035 0.031 0.053 0.087 0.136 0.181 0.268 0.281 0.395l0.017 0.023c0.116 0.146 0.241 0.286 0.373 0.418 0.115 0.114 0.234 0.22 0.357 0.32l-20.449-0.002z"></path>
<path fill="#4985ff" style="fill: var(--color2, #4985ff)" d="M17.6 14.933c0.141 0 0.277-0.056 0.377-0.156l2.133-2.133c0.208-0.208 0.208-0.546 0-0.754l-2.133-2.133c-0.1-0.1-0.236-0.156-0.377-0.156h-14.933c-1.473 0-2.667 1.194-2.667 2.667s1.194 2.667 2.667 2.667h14.933zM17.462 10.75l1.517 1.517-1.517 1.517-0.379-1.517 0.379-1.517zM4.267 10.667h12.117l-0.267 1.067h-10.784v1.067h10.784l0.267 1.067h-12.117v-3.2zM1.067 12.267c0-0.884 0.716-1.6 1.6-1.6h0.533v3.2h-0.533c-0.884 0-1.6-0.716-1.6-1.6z"></path>
<path fill="#4985ff" style="fill: var(--color2, #4985ff)" d="M12.266 22.933h16c0.295 0 0.533-0.239 0.533-0.533v-16c-0-0.295-0.239-0.533-0.534-0.533-0.141 0-0.277 0.056-0.377 0.156l-16 16c-0.208 0.208-0.208 0.546 0 0.754 0.1 0.1 0.236 0.156 0.377 0.156zM27.733 7.687v1.379h-1.067v1.067h1.067v1.067h-1.067v1.067h1.067v1.067h-1.067v1.067h1.067v1.067h-1.067v1.067h1.067v1.067h-1.067v1.067h1.067v1.067h-1.067v1.067h1.067v1.067h-1.067v-1.067h-1.067v1.067h-1.067v-1.067h-1.067v1.067h-1.067v-1.067h-1.067v1.067h-1.067v-1.067h-1.067v1.067h-1.067v-1.067h-1.067v1.067h-1.067v-1.067h-1.067v1.067h-1.379l14.179-14.179z"></path>
<path fill="#4985ff" style="fill: var(--color2, #4985ff)" d="M19.993 19.733h5.075c0.294 0 0.533-0.239 0.533-0.533v-5.075c0-0.294-0.239-0.533-0.533-0.533-0.141 0-0.277 0.056-0.377 0.156l-5.075 5.075c-0.208 0.208-0.208 0.546 0 0.754 0.1 0.1 0.236 0.156 0.377 0.156zM24.534 15.413v3.253h-3.253l3.253-3.253z"></path>
<path fill="#4985ff" style="fill: var(--color2, #4985ff)" d="M24.534 3.2h-10.667v1.067h10.667v-1.067z"></path>
<path fill="#4985ff" style="fill: var(--color2, #4985ff)" d="M26.134 5.333h-13.867v1.067h13.867v-1.067z"></path>
<path fill="#4985ff" style="fill: var(--color2, #4985ff)" d="M12.267 16.533h-3.2v1.067h3.2v-1.067z"></path>
<path fill="#4985ff" style="fill: var(--color2, #4985ff)" d="M11.2 18.667h-2.133v1.067h2.133v-1.067z"></path>
</symbol>

<symbol id="icon-play-button" viewBox="0 0 32 32">
<path fill="#4985ff" style="fill: var(--color1, #4985ff)" d="M32 16c0 8.837-7.163 16-16 16s-16-7.163-16-16c0-8.837 7.163-16 16-16s16 7.163 16 16z"></path>
<path fill="#fff" style="fill: var(--color2, #fff)" d="M16 0c-8.836 0-16 7.163-16 16s7.164 16 16 16c8.836 0 16-7.163 16-16s-7.164-16-16-16zM21.53 16.848l-8 5c-0.162 0.101-0.346 0.152-0.53 0.152-0.167 0-0.334-0.041-0.485-0.125-0.318-0.176-0.515-0.511-0.515-0.875v-10c0-0.364 0.197-0.698 0.515-0.874s0.707-0.166 1.015 0.026l8 5c0.292 0.183 0.47 0.503 0.47 0.848s-0.178 0.665-0.47 0.848z"></path>
</symbol>

<symbol id="icon-bat" viewBox="0 0 32 32">
<path fill="#a3d4ff" style="fill: var(--color1, #a3d4ff)" d="M25.246 29.059c4.087-2.899 6.754-7.667 6.754-13.059 0-8.837-7.163-16-16-16s-16 7.163-16 16c0 5.392 2.667 10.16 6.754 13.059z"></path>
<path fill="#65b1fc" style="fill: var(--color2, #65b1fc)" d="M8.847 18.568l-5.641 2.257 4.327 4.327z"></path>
<path fill="#65b1fc" style="fill: var(--color2, #65b1fc)" d="M31.219 11.047l-5.774-5.774-5.913 10.823-9.139-9.139-3.191 5.019 5.128 5.128 0.013 0.066-2.139 0.856 11.050 1.485 3.995 9.548c4.087-2.899 6.754-7.667 6.754-13.059 0-1.729-0.274-3.393-0.781-4.953z"></path>
<path fill="#414952" style="fill: var(--color3, #414952)" d="M13.375 21.011l-3.328-7.117-8.604-2.476s3.92 4.582 1.763 9.407c0 0 5.368 2.238 4.203 7.715l3.467 1.053z"></path>
<path fill="#23272b" style="fill: var(--color4, #23272b)" d="M18.625 21.011l3.328-7.117 8.604-2.476s-3.92 4.582-1.763 9.407c0 0-5.368 2.238-4.203 7.715l-3.467 1.053z"></path>
<path fill="#707789" style="fill: var(--color5, #707789)" d="M10.392 27.919c0-3.097 2.511-5.608 5.608-5.608s5.608 2.511 5.608 5.608v3.069c1.306-0.489 2.531-1.143 3.649-1.937l-2.213-11.088h-14.089l-2.213 11.088c1.118 0.795 2.343 1.449 3.649 1.937z"></path>
<path fill="#555a66" style="fill: var(--color6, #555a66)" d="M21.608 27.919v3.069c1.306-0.489 2.531-1.143 3.649-1.937l-2.213-11.088h-7.044v4.348c3.097 0 5.608 2.511 5.608 5.608z"></path>
<path fill="#555a66" style="fill: var(--color6, #555a66)" d="M16 22.248c-3.097 0-5.608 2.511-5.608 5.608v3.133c1.745 0.653 3.635 1.011 5.608 1.011s3.863-0.357 5.608-1.011v-3.133c0-3.097-2.511-5.608-5.608-5.608z"></path>
<path fill="#333940" style="fill: var(--color7, #333940)" d="M16 22.248v9.752c1.973 0 3.863-0.357 5.608-1.011v-3.133c0-3.097-2.511-5.608-5.608-5.608z"></path>
<path fill="#23272b" style="fill: var(--color4, #23272b)" d="M25.441 5.284c1.416 0.681 1.749 2.928 0.744 5.020s-2.968 3.236-4.384 2.556c-1.416-0.681-1.749-2.928-0.744-5.020s2.968-3.236 4.384-2.556z"></path>
<path fill="#ff432e" style="fill: var(--color8, #ff432e)" d="M24.526 7.188c0.696 0.334 0.861 1.439 0.367 2.468s-1.459 1.592-2.155 1.257c-0.696-0.334-0.861-1.439-0.367-2.468s1.459-1.592 2.155-1.257z"></path>
<path fill="#414952" style="fill: var(--color3, #414952)" d="M10.937 7.827c1.005 2.092 0.672 4.34-0.744 5.020s-3.379-0.464-4.384-2.556c-1.005-2.092-0.673-4.34 0.744-5.020s3.379 0.464 4.384 2.556z"></path>
<path fill="#ff6c52" style="fill: var(--color9, #ff6c52)" d="M9.643 8.461c0.494 1.029 0.33 2.134-0.367 2.468s-1.661-0.229-2.155-1.257c-0.494-1.029-0.33-2.134 0.367-2.468s1.661 0.229 2.155 1.257z"></path>
<path fill="#555a66" style="fill: var(--color6, #555a66)" d="M23.816 16.485c0 3.87-3.499 5.294-7.816 5.294s-7.816-1.424-7.816-5.294c0-3.87 3.499-8.33 7.816-8.33s7.816 4.46 7.816 8.33z"></path>
<path fill="#333940" style="fill: var(--color7, #333940)" d="M16 8.155v13.624c4.317 0 7.816-1.424 7.816-5.294s-3.499-8.33-7.816-8.33z"></path>
<path fill="#333940" style="fill: var(--color7, #333940)" d="M12.586 13.812c0 0.568-0.46 1.028-1.028 1.028s-1.028-0.46-1.028-1.028c0-0.568 0.46-1.028 1.028-1.028s1.028 0.46 1.028 1.028z"></path>
<path fill="#0e1011" style="fill: var(--color10, #0e1011)" d="M21.47 13.812c0 0.568-0.46 1.028-1.028 1.028s-1.028-0.46-1.028-1.028c0-0.568 0.46-1.028 1.028-1.028s1.028 0.46 1.028 1.028z"></path>
<path fill="#ff6c52" style="fill: var(--color9, #ff6c52)" d="M16.372 18.057h-0.744c-1.091 0-1.825-1.116-1.395-2.117l0.078-0.181c0.24-0.557 0.788-0.919 1.395-0.919h0.588c0.607 0 1.155 0.361 1.395 0.919l0.078 0.181c0.43 1.002-0.304 2.117-1.395 2.117z"></path>
<path fill="#ff432e" style="fill: var(--color8, #ff432e)" d="M17.767 15.94l-0.078-0.181c-0.24-0.557-0.788-0.919-1.395-0.919h-0.294v3.218h0.372c1.090-0 1.825-1.116 1.395-2.117z"></path>
<path fill="#333940" style="fill: var(--color7, #333940)" d="M15.368 16.021c0.256 0.061 0.415 0.317 0.354 0.573s-0.317 0.415-0.573 0.354c-0.256-0.061-0.415-0.317-0.354-0.573s0.317-0.415 0.573-0.354z"></path>
<path fill="#333940" style="fill: var(--color7, #333940)" d="M17.075 16.14c0.186 0.186 0.186 0.488 0 0.674s-0.488 0.186-0.674 0c-0.186-0.186-0.186-0.488 0-0.674s0.488-0.186 0.674 0z"></path>
</symbol>

<symbol id="icon-bear" viewBox="0 0 32 32">
<path fill="#a3d4ff" style="fill: var(--color1, #a3d4ff)" d="M26.428 28.135c3.411-2.934 5.572-7.282 5.572-12.135 0-8.837-7.163-16-16-16s-16 7.163-16 16c0 4.853 2.16 9.201 5.572 12.135z"></path>
<path fill="#65b1fc" style="fill: var(--color2, #65b1fc)" d="M32 16c0-0.696-0.044-1.382-0.131-2.055l-5.93-5.93-19.468 3.455 3.748 3.748 12.239 2.523 3.97 10.394c3.411-2.934 5.572-7.282 5.572-12.135z"></path>
<path fill="#a65d4e" style="fill: var(--color11, #a65d4e)" d="M9.541 28.476c0-3.567 2.892-6.459 6.459-6.459s6.459 2.892 6.459 6.459v2.166c1.45-0.641 2.788-1.49 3.974-2.51l-2.32-12.941h-16.225l-2.32 12.941c1.186 1.021 2.524 1.87 3.974 2.51z"></path>
<path fill="#784132" style="fill: var(--color12, #784132)" d="M22.459 28.538v2.104c1.45-0.641 2.788-1.49 3.974-2.51l-2.32-12.941h-8.112v6.889c3.567 0 6.459 2.892 6.459 6.459z"></path>
<path fill="#c38778" style="fill: var(--color13, #c38778)" d="M16 21.955c-3.567 0-6.459 2.892-6.459 6.459v2.23c1.975 0.873 4.16 1.357 6.459 1.357s4.483-0.485 6.459-1.357v-2.23c0-3.567-2.892-6.459-6.459-6.459z"></path>
<path fill="#a65d4e" style="fill: var(--color11, #a65d4e)" d="M16 21.955v10.045c2.298 0 4.483-0.485 6.459-1.357v-2.23c0-3.567-2.892-6.459-6.459-6.459z"></path>
<path fill="#a65d4e" style="fill: var(--color11, #a65d4e)" d="M8.993 7.667c1.050 0.696 2.881 3.136 2.184 4.187s-3.656 0.313-4.706-0.383c-1.050-0.697-1.337-2.112-0.641-3.163s2.112-1.337 3.163-0.641z"></path>
<path fill="#784132" style="fill: var(--color12, #784132)" d="M23.007 7.667c-1.050 0.696-2.881 3.136-2.184 4.187s3.656 0.313 4.706-0.383c1.050-0.697 1.337-2.112 0.641-3.163s-2.112-1.337-3.163-0.641z"></path>
<path fill="#c38778" style="fill: var(--color13, #c38778)" d="M24.959 14.361c0 4.435-4.011 6.068-8.959 6.068s-8.959-1.633-8.959-6.068 4.011-9.548 8.959-9.548 8.959 5.113 8.959 9.548z"></path>
<path fill="#a65d4e" style="fill: var(--color11, #a65d4e)" d="M16 4.813v15.616c4.948 0 8.959-1.633 8.959-6.068s-4.011-9.548-8.959-9.548z"></path>
<path fill="#414952" style="fill: var(--color3, #414952)" d="M12.652 10.431c0 0.516-0.418 0.935-0.935 0.935s-0.935-0.418-0.935-0.935c0-0.516 0.418-0.935 0.935-0.935s0.935 0.418 0.935 0.935z"></path>
<path fill="#23272b" style="fill: var(--color4, #23272b)" d="M21.218 10.431c0 0.516-0.418 0.935-0.935 0.935s-0.935-0.418-0.935-0.935c0-0.516 0.418-0.935 0.935-0.935s0.935 0.418 0.935 0.935z"></path>
<path fill="#a65d4e" style="fill: var(--color11, #a65d4e)" d="M15.64 10.599h0.719c1.457 0 2.582 1.096 2.392 2.332l-0.36 2.343c-0.158 1.027-1.181 1.795-2.392 1.795s-2.234-0.768-2.392-1.795l-0.36-2.343c-0.19-1.236 0.935-2.332 2.392-2.332z"></path>
<path fill="#784132" style="fill: var(--color12, #784132)" d="M16.36 10.599h-0.36v6.47c1.211 0 2.234-0.768 2.392-1.795l0.36-2.343c0.19-1.236-0.935-2.332-2.392-2.332z"></path>
<path fill="#414952" style="fill: var(--color3, #414952)" d="M17.649 13.138c0 0.735-0.738 1.33-1.649 1.33s-1.649-0.595-1.649-1.33 0.738-0.794 1.649-0.794 1.649 0.059 1.649 0.794z"></path>
<path fill="#23272b" style="fill: var(--color4, #23272b)" d="M16 12.344v2.124c0.911 0 1.649-0.595 1.649-1.33s-0.738-0.794-1.649-0.794z"></path>
</symbol>

<symbol id="icon-fox" viewBox="0 0 32 32">
<path fill="#c38778" style="fill: var(--color13, #c38778)" d="M25.249 29.057c4.085-2.899 6.751-7.667 6.751-13.057 0-8.837-7.163-16-16-16s-16 7.163-16 16c0 5.391 2.666 10.158 6.751 13.057z"></path>
<path fill="#a65d4e" style="fill: var(--color11, #a65d4e)" d="M30.433 9.086l-4.671-4.671-5.914 9.93 1.76 1.157 3.641 13.555c4.085-2.899 6.751-7.667 6.751-13.057 0-2.476-0.563-4.821-1.567-6.914z"></path>
<path fill="#fdba12" style="fill: var(--color14, #fdba12)" d="M11.52 7.062l-5.282-2.647 1.792 9.489z"></path>
<path fill="#ff9500" style="fill: var(--color15, #ff9500)" d="M20.48 7.062l5.282-2.647-1.792 9.489z"></path>
<path fill="#fdba12" style="fill: var(--color14, #fdba12)" d="M10.392 27.919c0-3.097 2.511-5.608 5.608-5.608s5.608 2.511 5.608 5.608v3.069c1.306-0.489 2.531-1.143 3.649-1.937l-2.213-14.769h-14.089l-2.213 14.769c1.118 0.795 2.343 1.449 3.649 1.937v-3.069z"></path>
<path fill="#ffa300" style="fill: var(--color16, #ffa300)" d="M21.608 27.919v3.069c1.306-0.489 2.531-1.143 3.649-1.937l-2.213-14.769h-7.027v8.029c3.090 0.009 5.591 2.517 5.591 5.608z"></path>
<path fill="#ffce00" style="fill: var(--color17, #ffce00)" d="M16.063 19.329l1.649-0.268 1.231-7.911h6.016c-0.035-4.008-4.032-5.486-8.958-5.486s-8.924 1.477-8.958 5.486h6.016l1.231 7.911 1.649 0.268-0.092 0.587c0.051 0.001 0.103 0.002 0.154 0.002s0.103-0.001 0.154-0.002z"></path>
<path fill="#ffa300" style="fill: var(--color16, #ffa300)" d="M16 22.248c-3.097 0-5.608 2.511-5.608 5.608v3.133c1.745 0.653 3.635 1.011 5.608 1.011s3.863-0.357 5.608-1.011v-3.133c0-3.097-2.511-5.608-5.608-5.608z"></path>
<path fill="#fe8205" style="fill: var(--color18, #fe8205)" d="M21.608 27.857c0-3.092-2.502-5.599-5.591-5.608v9.751c1.967-0.002 3.851-0.359 5.591-1.010z"></path>
<path fill="#ffe89c" style="fill: var(--color19, #ffe89c)" d="M15.898 19.917l0.102-0.651-1.649-0.268-1.231-7.911h-6.079c-0.001 0.038-0.001 0.076-0.001 0.115 0 4.021 3.956 8.651 8.858 8.714z"></path>
<path fill="#fdba12" style="fill: var(--color14, #fdba12)" d="M16.063 19.329l1.649-0.268 1.231-7.911h6.016c-0.035-4.004-4.023-5.482-8.941-5.486v14.253c0.046-0 0.091-0.001 0.137-0.002z"></path>
<path fill="#fad17f" style="fill: var(--color20, #fad17f)" d="M16.102 19.917l-0.102-0.651 1.649-0.268 1.231-7.911h6.079c0.001 0.038 0.001 0.076 0.001 0.115 0 4.021-3.956 8.651-8.858 8.714z"></path>
<path fill="#555a66" style="fill: var(--color6, #555a66)" d="M12.346 12.942c0.226 0.552-0.038 1.182-0.59 1.408s-1.182-0.038-1.408-0.59c-0.226-0.552 0.038-1.182 0.59-1.408s1.182 0.038 1.408 0.59z"></path>
<path fill="#333940" style="fill: var(--color7, #333940)" d="M21.528 12.679c0.368 0.469 0.287 1.148-0.182 1.516s-1.148 0.287-1.516-0.182c-0.368-0.469-0.287-1.148 0.182-1.516s1.148-0.287 1.516 0.182z"></path>
<path fill="#414952" style="fill: var(--color3, #414952)" d="M17.649 18.998c0 0.735-0.738 1.33-1.649 1.33s-1.649-0.596-1.649-1.33 0.738-0.794 1.649-0.794 1.649 0.059 1.649 0.794z"></path>
<path fill="#23272b" style="fill: var(--color4, #23272b)" d="M17.649 18.998c0-0.73-0.729-0.793-1.631-0.794v2.124c0.903-0.008 1.631-0.6 1.631-1.33z"></path>
</symbol>

<symbol id="icon-giraffe" viewBox="0 0 32 32">
<path fill="#c38778" style="fill: var(--color13, #c38778)" d="M21.438 31.052c6.16-2.226 10.563-8.125 10.563-15.052 0-8.837-7.163-16-16-16s-16 7.163-16 16c0 6.928 4.403 12.827 10.563 15.052z"></path>
<path fill="#a65d4e" style="fill: var(--color11, #a65d4e)" d="M10.563 16.909l-1.533 0.936 1.533 1.533z"></path>
<path fill="#a65d4e" style="fill: var(--color11, #a65d4e)" d="M10.563 13.918l8.17 1.608 2.705 15.526c6.16-2.226 10.563-8.125 10.563-15.052 0-0.866-0.069-1.716-0.201-2.545l-4.62-4.676-5.714-5.658-1.967 6.459-6.459-6.459-1.802 8.442-5.519-0.292 4.845 4.845z"></path>
<path fill="#fdba12" style="fill: var(--color14, #fdba12)" d="M10.535 31.042c1.705 0.62 3.546 0.958 5.465 0.958s3.76-0.338 5.465-0.958v-17.578h-10.93z"></path>
<path fill="#ffa300" style="fill: var(--color16, #ffa300)" d="M16 13.465v18.535c1.919 0 3.76-0.338 5.465-0.958v-17.578z"></path>
<path fill="#ffce00" style="fill: var(--color17, #ffce00)" d="M24.326 14.379c0 4.048-3.728 5.538-8.326 5.538s-8.326-1.49-8.326-5.538c0-4.048 3.728-8.715 8.326-8.715s8.326 4.667 8.326 8.715z"></path>
<path fill="#fdba12" style="fill: var(--color14, #fdba12)" d="M16 5.664v14.253c4.598 0 8.326-1.49 8.326-5.538s-3.728-8.715-8.326-8.715z"></path>
<path fill="#555a66" style="fill: var(--color6, #555a66)" d="M12.346 12.384c0.226 0.552-0.038 1.182-0.59 1.408s-1.182-0.038-1.408-0.59c-0.226-0.552 0.038-1.182 0.59-1.408s1.182 0.038 1.408 0.59z"></path>
<path fill="#333940" style="fill: var(--color7, #333940)" d="M21.528 12.122c0.368 0.469 0.287 1.148-0.182 1.516s-1.148 0.287-1.516-0.182c-0.368-0.469-0.287-1.148 0.182-1.516s1.148-0.287 1.516 0.182z"></path>
<path fill="#414952" style="fill: var(--color3, #414952)" d="M15.443 16.174c0.233 0.233 0.233 0.61 0 0.842s-0.61 0.233-0.842 0c-0.233-0.233-0.233-0.61 0-0.842s0.61-0.233 0.842 0z"></path>
<path fill="#23272b" style="fill: var(--color4, #23272b)" d="M17.123 16.009c0.32 0.075 0.519 0.396 0.444 0.717s-0.396 0.519-0.717 0.444c-0.32-0.075-0.519-0.396-0.444-0.717s0.396-0.519 0.717-0.444z"></path>
<path fill="#ffce00" style="fill: var(--color17, #ffce00)" d="M10.535 4.098h2.504v4.887h-2.504z"></path>
<path fill="#fdba12" style="fill: var(--color14, #fdba12)" d="M18.961 4.098h2.504v4.887h-2.504z"></path>
<path fill="#ffce00" style="fill: var(--color17, #ffce00)" d="M10.526 11.712h-3.481c-1.228 0-2.224-0.996-2.224-2.224v-0.708h5.705v2.932z"></path>
<path fill="#fdba12" style="fill: var(--color14, #fdba12)" d="M21.474 11.712h3.481c1.228 0 2.224-0.996 2.224-2.224v-0.708h-5.705z"></path>
<path fill="#ffce00" style="fill: var(--color17, #ffce00)" d="M13.375 4.098c0 0.877-0.711 1.588-1.588 1.588s-1.588-0.711-1.588-1.588c0-0.877 0.711-1.588 1.588-1.588s1.588 0.711 1.588 1.588z"></path>
<path fill="#fdba12" style="fill: var(--color14, #fdba12)" d="M21.801 4.098c0 0.877-0.711 1.588-1.588 1.588s-1.588-0.711-1.588-1.588c0-0.877 0.711-1.588 1.588-1.588s1.588 0.711 1.588 1.588z"></path>
<path fill="#ff9d00" style="fill: var(--color21, #ff9d00)" d="M10.535 26.457l1.964-0.679 1.205-3.078-3.169-0.594z"></path>
<path fill="#fe8205" style="fill: var(--color18, #fe8205)" d="M21.465 26.642l-2.84-0.533-0.722 3.484 3.562 1.007z"></path>
</symbol>

</defs>
</svg>
